<svg width="60" height="60" viewBox="0 0 60 60" fill="none" xmlns="http://www.w3.org/2000/svg">
<g filter="url(#filter0_d_1789_14903)">
<rect x="8" y="7" width="44" height="44" rx="12" fill="white"/>
<path d="M36.5 29.6504V33.3504C36.5 36.4704 33.59 39.0004 30 39.0004C26.41 39.0004 23.5 36.4704 23.5 33.3504V29.6504C23.5 32.7704 26.41 35.0004 30 35.0004C33.59 35.0004 36.5 32.7704 36.5 29.6504Z" stroke="#2690E0" stroke-width="1.5" stroke-linecap="round" stroke-linejoin="round"/>
<path d="M36.5 24.65C36.5 25.56 36.25 26.4 35.81 27.12C34.74 28.88 32.54 30 30 30C27.46 30 25.26 28.88 24.19 27.12C23.75 26.4 23.5 25.56 23.5 24.65C23.5 23.09 24.23 21.68 25.4 20.66C26.58 19.63 28.2 19 30 19C31.8 19 33.42 19.63 34.6 20.65C35.77 21.68 36.5 23.09 36.5 24.65Z" stroke="#2690E0" stroke-width="1.5" stroke-linecap="round" stroke-linejoin="round"/>
<path d="M36.5 24.65V29.65C36.5 32.77 33.59 35 30 35C26.41 35 23.5 32.77 23.5 29.65V24.65C23.5 21.53 26.41 19 30 19C31.8 19 33.42 19.63 34.6 20.65C35.77 21.68 36.5 23.09 36.5 24.65Z" stroke="#2690E0" stroke-width="1.5" stroke-linecap="round" stroke-linejoin="round"/>
</g>
<defs>
<filter id="filter0_d_1789_14903" x="0" y="0" width="60" height="60" filterUnits="userSpaceOnUse" color-interpolation-filters="sRGB">
<feFlood flood-opacity="0" result="BackgroundImageFix"/>
<feColorMatrix in="SourceAlpha" type="matrix" values="0 0 0 0 0 0 0 0 0 0 0 0 0 0 0 0 0 0 127 0" result="hardAlpha"/>
<feOffset dy="1"/>
<feGaussianBlur stdDeviation="4"/>
<feColorMatrix type="matrix" values="0 0 0 0 0 0 0 0 0 0 0 0 0 0 0 0 0 0 0.08 0"/>
<feBlend mode="normal" in2="BackgroundImageFix" result="effect1_dropShadow_1789_14903"/>
<feBlend mode="normal" in="SourceGraphic" in2="effect1_dropShadow_1789_14903" result="shape"/>
</filter>
</defs>
</svg>
